<?xml version="1.0" encoding="utf-8"?>
<!-- Generator: Adobe Illustrator 19.2.0, SVG Export Plug-In . SVG Version: 6.00 Build 0)  -->
<svg version="1.1" id="Layer_1" xmlns="http://www.w3.org/2000/svg" xmlns:xlink="http://www.w3.org/1999/xlink" x="0px" y="0px"
	 viewBox="0 0 141.7 141.7" style="enable-background:new 0 0 141.7 141.7;" xml:space="preserve">
<style type="text/css">
	.st0{fill:#FFFFFF;}
	.st1{fill:#D3D3D3;}
</style>
<g>
	<g>
		<path class="st0" d="M68.7,0C31.3,1.2,1.2,31.3,0,68.7c-1.2,40.7,32.3,74.3,73,73c37.4-1.1,67.5-31.2,68.6-68.6
			C142.9,32.4,109.4-1.2,68.7,0z"/>
	</g>
	<path class="st1" d="M105.1,94.8c0.5,0.5,0.7,1.1,0.7,1.8s-0.3,1.3-0.7,1.8l-6.8,6.9c-0.5,0.5-1.1,0.7-1.8,0.7
		c-0.6,0-1.3-0.3-1.8-0.7L71.6,82c-0.4-0.4-1.1-0.4-1.5,0L47,105.2c-0.5,0.5-1.1,0.7-1.8,0.7s-1.3-0.3-1.8-0.7l-6.8-6.9
		c-0.5-0.5-0.7-1.1-0.7-1.8c0-0.7,0.3-1.3,0.7-1.8l23.2-23.3c0.4-0.4,0.4-1.1,0-1.5L36.6,47c-1-1-1-2.6,0-3.6l6.8-6.9
		c0.5-0.5,1.1-0.7,1.8-0.7c0.7,0,1.3,0.3,1.8,0.7l23.2,22.9c0.4,0.4,1.1,0.4,1.5,0l23.2-22.9c0.5-0.5,1.1-0.7,1.8-0.7
		c0.7,0,1.3,0.3,1.8,0.7l6.8,6.9c1,1,1,2.6,0,3.6L82,70c-0.4,0.4-0.4,1.1,0,1.5L105.1,94.8z"/>
</g>
</svg>
