<?xml version="1.0" encoding="utf-8"?>
<!-- Generator: Adobe Illustrator 22.0.1, SVG Export Plug-In . SVG Version: 6.00 Build 0)  -->
<svg version="1.1" id="Слой_1" xmlns="http://www.w3.org/2000/svg" xmlns:xlink="http://www.w3.org/1999/xlink" x="0px" y="0px"
	 viewBox="0 0 30 30" style="enable-background:new 0 0 30 30;" xml:space="preserve">
<style type="text/css">
	.st0{fill:url(#XMLID_2_);}
	.st1{fill:url(#XMLID_3_);}
	.st2{fill:url(#XMLID_4_);}
</style>
<g id="XMLID_138_">
	
		<radialGradient id="XMLID_2_" cx="8.7027" cy="1.4804" r="30.2667" gradientTransform="matrix(1 0 0 -1 0 31.4173)" gradientUnits="userSpaceOnUse">
		<stop  offset="0" style="stop-color:#FFD776"/>
		<stop  offset="0.2463" style="stop-color:#F3A554"/>
		<stop  offset="0.3793" style="stop-color:#F15C3C"/>
		<stop  offset="0.5394" style="stop-color:#D94867"/>
		<stop  offset="0.6995" style="stop-color:#C32F87"/>
		<stop  offset="0.9122" style="stop-color:#7D63A7"/>
		<stop  offset="0.9852" style="stop-color:#5C6CB3"/>
	</radialGradient>
	<path id="XMLID_142_" class="st0" d="M29.2,5.2c-0.4-1-0.9-1.8-1.7-2.7c-0.8-0.8-1.7-1.3-2.7-1.7c-1-0.4-2.1-0.6-3.6-0.7
		C19.6,0,19.1,0,15,0s-4.6,0-6.2,0.1C7.2,0.2,6.1,0.4,5.2,0.8c-1,0.4-1.8,0.9-2.7,1.7S1.2,4.2,0.8,5.2c-0.4,1-0.6,2.1-0.7,3.6
		C0,10.4,0,10.9,0,15s0,4.6,0.1,6.2c0.1,1.6,0.3,2.7,0.7,3.6c0.4,1,0.9,1.8,1.7,2.7c0.8,0.8,1.7,1.3,2.7,1.7c1,0.4,2.1,0.6,3.6,0.7
		C10.4,30,10.9,30,15,30s4.6,0,6.2-0.1c1.6-0.1,2.7-0.3,3.6-0.7c1-0.4,1.8-0.9,2.7-1.7c0.8-0.8,1.3-1.7,1.7-2.7
		c0.4-1,0.6-2.1,0.7-3.6C30,19.6,30,19.1,30,15s0-4.6-0.1-6.2C29.8,7.2,29.6,6.1,29.2,5.2z M27.2,21.1c-0.1,1.5-0.3,2.3-0.5,2.8
		c-0.3,0.7-0.6,1.2-1.1,1.7s-1,0.8-1.7,1.1c-0.5,0.2-1.3,0.5-2.8,0.5c-1.6,0.1-2.1,0.1-6.1,0.1s-4.5,0-6.1-0.1
		c-1.5-0.1-2.3-0.3-2.8-0.5c-0.7-0.3-1.2-0.6-1.7-1.1s-0.8-1-1.1-1.7c-0.2-0.5-0.5-1.3-0.5-2.8C2.7,19.5,2.7,19,2.7,15
		s0-4.5,0.1-6.1c0.1-1.5,0.3-2.3,0.5-2.8C3.6,5.5,3.9,5,4.4,4.4s1-0.8,1.7-1.1c0.5-0.2,1.3-0.5,2.8-0.5C10.5,2.7,11,2.7,15,2.7
		s4.5,0,6.1,0.1c1.5,0.1,2.3,0.3,2.8,0.5c0.7,0.3,1.2,0.6,1.7,1.1s0.8,1,1.1,1.7c0.2,0.5,0.5,1.3,0.5,2.8c0.1,1.6,0.1,2.1,0.1,6.1
		S27.3,19.5,27.2,21.1z"/>
	
		<radialGradient id="XMLID_3_" cx="11.7606" cy="8.7472" r="15.5423" gradientTransform="matrix(1 0 0 -1 0 31.4173)" gradientUnits="userSpaceOnUse">
		<stop  offset="0" style="stop-color:#FFD776"/>
		<stop  offset="0.2463" style="stop-color:#F3A554"/>
		<stop  offset="0.3793" style="stop-color:#F15C3C"/>
		<stop  offset="0.607" style="stop-color:#D94867"/>
		<stop  offset="0.8346" style="stop-color:#C32F87"/>
		<stop  offset="0.9577" style="stop-color:#7D63A7"/>
		<stop  offset="1" style="stop-color:#5C6CB3"/>
	</radialGradient>
	<path id="XMLID_145_" class="st1" d="M15,7.3c-4.3,0-7.7,3.5-7.7,7.7s3.5,7.7,7.7,7.7s7.7-3.5,7.7-7.7S19.2,7.3,15,7.3z M15,20
		c-2.8,0-5-2.2-5-5c0-2.8,2.2-5,5-5s5,2.2,5,5C20,17.8,17.7,20,15,20z"/>
	
		<radialGradient id="XMLID_4_" cx="22.2473" cy="22.6384" r="3.632" gradientTransform="matrix(1 0 0 -1 0 31.4173)" gradientUnits="userSpaceOnUse">
		<stop  offset="0" style="stop-color:#5F6DB3"/>
		<stop  offset="1" style="stop-color:#5C6CB3"/>
	</radialGradient>
	<circle id="XMLID_143_" class="st2" cx="23" cy="7" r="1.8"/>
</g>
</svg>
