<?xml version="1.0" encoding="utf-8"?>
<!-- Generator: Adobe Illustrator 22.0.1, SVG Export Plug-In . SVG Version: 6.00 Build 0)  -->
<svg version="1.1" id="Слой_1" xmlns="http://www.w3.org/2000/svg" xmlns:xlink="http://www.w3.org/1999/xlink" x="0px" y="0px"
	 viewBox="0 0 30 30" style="enable-background:new 0 0 30 30;" xml:space="preserve">
<style type="text/css">
	.st0{fill:#5181B8;}
	.st1{fill:#FFFFFF;}
</style>
<g>
	<path class="st0" d="M10.4,0c8.4,0,0.8,0,9.2,0S30,2,30,10.4s0,0.8,0,9.2S28,30,19.6,30s-0.8,0-9.2,0S0,28,0,19.6s0-4.5,0-9.2
		C0,2,2,0,10.4,0z"/>
	<path class="st1" d="M24.6,10.3c0.1-0.5,0-0.8-0.7-0.8h-2.2c-0.6,0-0.8,0.3-1,0.6c0,0-1.1,2.7-2.7,4.5c-0.5,0.5-0.7,0.7-1,0.7
		c-0.1,0-0.3-0.2-0.3-0.6v-4.3c0-0.6-0.2-0.8-0.6-0.8h-3.4c-0.3,0-0.6,0.3-0.6,0.5c0,0.5,0.8,0.6,0.9,2.1v3.2c0,0.7-0.1,0.8-0.4,0.8
		c-0.7,0-2.5-2.7-3.6-5.8C8.7,9.8,8.5,9.5,8,9.5H5.8C5.2,9.5,5,9.8,5,10.2c0,0.6,0.7,3.5,3.5,7.3c1.8,2.6,4.4,4,6.7,4
		c1.4,0,1.6-0.3,1.6-0.9v-2c0-0.6,0.1-0.7,0.6-0.7c0.3,0,0.9,0.2,2.2,1.4c1.5,1.5,1.7,2.1,2.6,2.1h2.2c0.6,0,0.9-0.3,0.8-0.9
		c-0.2-0.6-0.9-1.5-1.8-2.6c-0.5-0.6-1.3-1.3-1.5-1.6c-0.3-0.4-0.2-0.6,0-1C21.6,15.4,24.3,11.6,24.6,10.3z"/>
</g>
</svg>
