<?xml version="1.0" encoding="utf-8"?>
<!-- Generator: Adobe Illustrator 19.2.0, SVG Export Plug-In . SVG Version: 6.00 Build 0)  -->
<svg version="1.1" id="Слой_1" xmlns="http://www.w3.org/2000/svg" xmlns:xlink="http://www.w3.org/1999/xlink" x="0px" y="0px"
	 viewBox="0 0 30 30" style="enable-background:new 0 0 30 30;" xml:space="preserve">
<style type="text/css">
	.st0{fill:#48CE83;}
</style>
<g>
	<path class="st0" d="M15,2.7c4,0,4.5,0,6.1,0.1c1.5,0.1,2.3,0.3,2.8,0.5c0.7,0.2,1.2,0.6,1.7,1.1s0.9,1.1,1.1,1.7
		c0.2,0.5,0.4,1.3,0.5,2.8c0.1,1.6,0.1,2.1,0.1,6.1s0,4.5-0.1,6.1c-0.1,1.5-0.3,2.3-0.5,2.8c-0.5,1.3-1.5,2.3-2.8,2.8
		c-0.5,0.2-1.3,0.4-2.8,0.5c-1.6,0.1-2.1,0.1-6.1,0.1s-4.5,0-6.1-0.1c-1.5-0.1-2.3-0.3-2.8-0.5c-0.7-0.2-1.2-0.6-1.7-1.1
		s-0.9-1.1-1.1-1.7c-0.2-0.5-0.4-1.3-0.5-2.8C2.7,19.5,2.7,19,2.7,15s0-4.5,0.1-6.1c0.1-1.5,0.3-2.3,0.5-2.8
		c0.2-0.7,0.6-1.2,1.1-1.7s1.1-0.9,1.7-1.1c0.5-0.2,1.3-0.4,2.8-0.5C10.5,2.7,11,2.7,15,2.7 M15,0c-4.1,0-4.6,0-6.2,0.1
		S6.1,0.4,5.2,0.8c-1,0.4-1.9,1-2.7,1.7C1.8,3.3,1.2,4.2,0.8,5.2s-0.6,2-0.7,3.6S0,10.9,0,15s0,4.6,0.1,6.2s0.3,2.7,0.7,3.6
		c0.4,1,1,1.9,1.7,2.7c0.7,0.8,1.7,1.4,2.7,1.7c1,0.4,2,0.6,3.6,0.7C10.4,30,10.9,30,15,30s4.6,0,6.2-0.1s2.7-0.3,3.6-0.7
		c2-0.8,3.6-2.4,4.4-4.4c0.4-1,0.6-2,0.7-3.6C30,19.6,30,19.1,30,15s0-4.6-0.1-6.2s-0.3-2.7-0.7-3.6c-0.4-1-1-1.9-1.7-2.7
		s-1.7-1.4-2.7-1.7c-1-0.4-2-0.6-3.6-0.7C19.6,0,19.1,0,15,0L15,0L15,0z"/>
	<path class="st0" d="M15,7.3c-4.3,0-7.7,3.4-7.7,7.7s3.4,7.7,7.7,7.7s7.7-3.4,7.7-7.7l0,0C22.7,10.7,19.3,7.3,15,7.3z M15,20
		c-2.8,0-5-2.2-5-5s2.2-5,5-5s5,2.2,5,5S17.8,20,15,20z"/>
	<circle class="st0" cx="23" cy="7" r="1.8"/>
</g>
</svg>
