<svg xmlns="http://www.w3.org/2000/svg" viewBox="0 0 57.41 50.23"><defs><style>.cls-1{fill:#fff;}</style></defs><title>Ресурс 1</title><g id="Слой_2" data-name="Слой 2"><g id="Слой_1-2" data-name="Слой 1"><g id="Photo"><path class="cls-1" d="M53.82,7.18h-9L37.67,0H19.73L12.56,7.18h-9A3.58,3.58,0,0,0,0,10.76V46.64a3.59,3.59,0,0,0,3.59,3.59H53.82a3.59,3.59,0,0,0,3.59-3.59V10.76A3.58,3.58,0,0,0,53.82,7.18ZM52,44.85H5.38V12.56h9.41L22,5.38H35.45l7.17,7.18H52ZM28.7,14.35A12.56,12.56,0,1,0,41.26,26.91,12.55,12.55,0,0,0,28.7,14.35Zm0,19.74a7.18,7.18,0,1,1,7.18-7.18A7.18,7.18,0,0,1,28.7,34.09Z"/></g></g></g></svg>