<?xml version="1.0" encoding="utf-8"?>
<!-- Generator: Adobe Illustrator 19.2.0, SVG Export Plug-In . SVG Version: 6.00 Build 0)  -->
<svg version="1.1" id="Слой_1" xmlns="http://www.w3.org/2000/svg" xmlns:xlink="http://www.w3.org/1999/xlink" x="0px" y="0px"
	 viewBox="0 0 60 86" style="enable-background:new 0 0 60 86;" xml:space="preserve">
<style type="text/css">
	.st0{fill:#FFFFFF;}
	.st1{fill:#00CC83;}
	.st2{fill:#00D6F6;}
	.st3{fill:#00BBFF;}
	.st4{fill:#00D9C0;}
</style>
<g>
	<g>
		<path class="st0" d="M60,28.2C60,53.8,30,86,30,86S0,54.2,0,28.2C0,12.8,13.3,0,30,0S60,12.8,60,28.2z"/>
	</g>
	<g>
		<path class="st1" d="M8.1,16.7h9.4c3,0,4.7,0.9,6,3c4.3,6.4,6,11.6,0,19.3c-1.7,1.7-3,3-6.4,3h-9c4.7-8.6,5.6-11.6,12.4-12.4l0,0
			C13.7,28.3,12.4,25.3,8.1,16.7"/>
		<path class="st2" d="M51.9,16.7h-9.4c-3,0-4.7,0.9-6,3c-4.3,6.4-6,11.6,0,19.3c1.7,1.7,3,3,6.4,3h9.4c-4.7-8.6-5.6-11.6-12.4-12.4
			l0,0C46.3,28.3,47.6,25.3,51.9,16.7"/>
		<path class="st3" d="M30,18c0.9,0,1.7,0.9,1.7,1.7s-0.9,1.7-1.7,1.7s-1.7-0.9-1.7-1.7C28.3,18.4,29.1,18,30,18z M30,23.6
			c2.1,0,3-1.7,4.7-4.7c1.3-2.1,1.3-4.7-0.4-7.3L30,3.9l-4.3,7.7c-1.7,2.6-1.7,5.1-0.4,7.3C27,21.9,27.9,23.6,30,23.6L30,23.6z"/>
		<path class="st4" d="M24.9,40.3c-1.3,2.1-0.9,4.3,0.9,6.9l4.3,7.7l4.3-7.3c1.7-2.6,2.1-4.7,0.9-6.9c-0.9-1.7-2.1-3.9-3-4.7
			c-0.9-0.9-1.3-1.3-2.1-1.3s-1.3,0.4-2.1,1.3C27,36.9,25.7,38.6,24.9,40.3"/>
	</g>
</g>
</svg>
