<?xml version="1.0" encoding="utf-8"?>
<!-- Generator: Adobe Illustrator 19.2.0, SVG Export Plug-In . SVG Version: 6.00 Build 0)  -->
<svg version="1.1" id="Слой_1" xmlns="http://www.w3.org/2000/svg" xmlns:xlink="http://www.w3.org/1999/xlink" x="0px" y="0px"
	 viewBox="0 0 30 30" style="enable-background:new 0 0 30 30;" xml:space="preserve">
<style type="text/css">
	.st0{fill:#48CE83;}
	.st1{fill:#FFFFFF;}
</style>
<circle class="st0" cx="15" cy="15" r="15"/>
<g>
	<path class="st1" d="M19.3,3.4h-8.5C9.3,3.4,8.2,4.5,8.2,6v18c0,1.4,1.1,2.7,2.7,2.7h8.5c1.4,0,2.7-1.1,2.7-2.7V6
		C21.8,4.5,20.7,3.4,19.3,3.4z M15,25.5c-0.9,0-1.6-0.7-1.6-1.6s0.7-1.6,1.6-1.6c1,0,1.6,0.7,1.6,1.6S15.9,25.5,15,25.5z M19.8,21.4
		h-9.5V6.5h9.5V21.4z"/>
</g>
</svg>
